<?xml version="1.0" standalone="no"?><svg xmlns="http://www.w3.org/2000/svg" viewBox="0 0 1440 320"><path fill="#2874f0" fill-opacity="1" d="M0,160L24,170.7C48,181,96,203,144,208C192,213,240,203,288,186.7C336,171,384,149,432,138.7C480,128,528,128,576,149.3C624,171,672,213,720,234.7C768,256,816,256,864,234.7C912,213,960,171,1008,144C1056,117,1104,107,1152,112C1200,117,1248,139,1296,133.3C1344,128,1392,96,1416,80L1440,64L1440,0L1416,0C1392,0,1344,0,1296,0C1248,0,1200,0,1152,0C1104,0,1056,0,1008,0C960,0,912,0,864,0C816,0,768,0,720,0C672,0,624,0,576,0C528,0,480,0,432,0C384,0,336,0,288,0C240,0,192,0,144,0C96,0,48,0,24,0L0,0Z"></path></svg>