<?xml version="1.0" encoding="UTF-8"?>
<!DOCTYPE svg PUBLIC "-//W3C//DTD SVG 1.1//EN" "http://www.w3.org/Graphics/SVG/1.1/DTD/svg11.dtd">
<!-- Creator: CorelDRAW X7 -->
<svg xmlns="http://www.w3.org/2000/svg" xml:space="preserve" width="413px" height="415px" version="1.1" style="shape-rendering:geometricPrecision; text-rendering:geometricPrecision; image-rendering:optimizeQuality; fill-rule:evenodd; clip-rule:evenodd"
viewBox="0 0 412 414"
 xmlns:xlink="http://www.w3.org/1999/xlink">
 <defs>
  <style type="text/css">
   <![CDATA[
    .fil13 {fill:none}
    .fil7 {fill:blue;fill-rule:nonzero}
    .fil5 {fill:#002B7A;fill-rule:nonzero}
    .fil0 {fill:#067CFF;fill-rule:nonzero}
    .fil3 {fill:#202D34;fill-rule:nonzero}
    .fil10 {fill:#CC6633;fill-rule:nonzero}
    .fil9 {fill:#FF847F;fill-rule:nonzero}
    .fil2 {fill:#FFC5BD;fill-rule:nonzero}
    .fil8 {fill:white;fill-rule:nonzero}
    .fil4 {fill:black;fill-rule:nonzero;fill-opacity:0.200000}
    .fil6 {fill:#067CFF;fill-rule:nonzero;fill-opacity:0.200000}
    .fil12 {fill:white;fill-rule:nonzero;fill-opacity:0.200000}
    .fil1 {fill:white;fill-rule:nonzero;fill-opacity:0.301961}
    .fil11 {fill:white;fill-rule:nonzero;fill-opacity:0.701961}
   ]]>
  </style>
   <clipPath id="id0">
    <path d="M0 0l412 0 0 414 -412 0 0 -414z"/>
   </clipPath>
 </defs>
 <g id="Layer_x0020_1">
  <metadata id="CorelCorpID_0Corel-Layer"/>
  <g>
  </g>
  <g style="clip-path:url(#id0)">
   <g>
    <g id="_1504460870544">
     <g>
      <g>
       <path class="fil0" d="M158 247l-118 0c-3,0 -5,-2 -5,-4l0 -7c0,-2 2,-4 5,-4l118 0c3,0 5,2 5,4l0 7c0,2 -2,4 -5,4z"/>
       <g>
        <polygon class="fil0" points="157,390 160,390 156,247 151,247 "/>
        <polygon class="fil1" points="157,390 160,390 156,247 151,247 "/>
       </g>
       <g>
        <polygon class="fil0" points="124,390 121,390 125,247 130,247 "/>
        <polygon class="fil1" points="124,390 121,390 125,247 130,247 "/>
       </g>
       <g>
        <polygon class="fil0" points="73,390 77,390 73,247 68,247 "/>
        <polygon class="fil1" points="73,390 77,390 73,247 68,247 "/>
       </g>
       <g>
        <polygon class="fil0" points="41,390 37,390 41,247 46,247 "/>
        <polygon class="fil1" points="41,390 37,390 41,247 46,247 "/>
       </g>
      </g>
      <g>
       <g>
        <g>
         <g>
          <g>
           <polygon class="fil2" points="194,354 207,350 197,320 184,324 "/>
           <path class="fil3" d="M206 345l-14 6c0,0 0,0 0,1l5 11c1,1 2,1 3,1 5,-3 7,-4 13,-6 4,-2 12,-5 16,-8 5,-3 1,-7 -1,-6 -5,2 -15,2 -19,0 -1,0 -2,0 -3,1z"/>
           <g>
            <polygon class="fil4" points="184,324 197,320 203,337 190,341 "/>
           </g>
           <path class="fil5" d="M105 192c0,0 63,11 68,32 10,41 32,104 32,104l-23 7c0,0 -35,-73 -39,-97 -35,0 -78,3 -84,-12 -4,-14 -3,-34 -3,-34l49 0z"/>
           <polygon class="fil6" points="180,340 208,330 206,318 175,329 "/>
          </g>
          <g>
           <polygon class="fil2" points="140,358 154,359 145,325 133,328 "/>
           <path class="fil3" d="M153 356l-15 -2c0,0 -1,1 -1,1l0 12c-1,1 1,2 2,3 5,0 8,0 14,1 4,0 12,1 18,1 5,0 4,-6 2,-6 -6,-1 -14,-6 -17,-9 -1,-1 -2,-1 -3,-1z"/>
           <g>
            <polygon class="fil4" points="133,328 145,325 150,342 136,345 "/>
           </g>
           <path class="fil5" d="M73 192c0,0 76,12 72,40 -5,42 8,102 8,102l-24 5c0,0 -18,-75 -18,-100 -25,0 -68,2 -74,-13 -5,-14 -3,-34 -3,-34l39 0z"/>
           <polygon class="fil6" points="127,343 156,336 155,324 123,331 "/>
          </g>
          <g>
           <path class="fil2" d="M113 112c2,8 4,16 6,24 2,8 4,16 6,24l1 6 1 3 0 1 0 0 1 0c0,0 -1,0 -1,0 0,0 0,0 0,-1 0,0 0,0 0,0 0,0 0,0 0,0 0,0 0,0 -1,0 0,-1 0,-1 0,-1 0,0 0,1 1,1 0,0 1,0 2,1 1,1 3,1 5,2 7,3 15,5 23,7l-2 9c-4,0 -8,0 -12,0 -5,-1 -9,-1 -13,-2 -3,0 -5,-1 -7,-2 -1,0 -2,-1 -4,-1 -1,-1 -1,-1 -2,-1 -1,-1 -2,-2 -3,-3 0,0 0,0 0,-1l-1 0c0,0 0,0 0,-1 0,0 -1,-1 -1,-1l0 -1 -1 -1 -1 -3c0,-2 -1,-4 -2,-6 -2,-9 -5,-17 -7,-25 -2,-8 -4,-16 -6,-24l18 -4z"/>
           <g>
            <g>
             <path class="fil7" d="M93 102c8,-8 20,-2 25,17 3,9 2,14 2,14l-27 8c-5,-13 -10,-27 0,-39z"/>
            </g>
            <path class="fil7" d="M93 102c8,-8 20,-2 25,17 3,9 2,14 2,14l-27 8c-5,-13 -10,-27 0,-39z"/>
           </g>
           <path class="fil2" d="M170 176l-2 -1c-1,0 -3,-1 -4,0l-5 0c-4,1 -7,3 -8,6l-2 4c1,6 14,4 14,4l11 0 0 -9c0,-2 -2,-4 -4,-4z"/>
           <path class="fil3" d="M179 162c-1,3 -2,5 -3,6 -2,2 -3,4 -4,6 -3,4 -6,7 -9,11 0,0 0,0 -1,0 0,-1 0,-1 0,-1 2,-4 5,-8 7,-12 1,-2 2,-4 4,-6 1,-2 2,-4 4,-5 1,0 1,0 2,1 0,0 0,0 0,0z"/>
          </g>
          <path class="fil7" d="M95 94l-15 -4 -19 -1c-6,-1 -11,3 -13,9 -4,11 -7,27 -10,41 -2,16 -4,32 -4,53l71 0c2,-40 6,-59 9,-73 2,-9 -2,-17 -10,-21l-9 -4z"/>
          <path class="fil8" d="M75 97c2,4 9,14 17,18 5,-3 6,-10 6,-14l-23 -4z"/>
          <path class="fil2" d="M98 101c1,-1 1,-3 0,-5 -2,-2 -1,-4 0,-6 1,-1 3,-4 3,-5l-9 -11 -8 -9c0,9 -1,19 -7,25 -3,3 -3,3 -2,7 2,4 8,11 17,15 4,-4 6,-7 6,-11z"/>
          <path class="fil4" d="M98 83l-5 -8c0,0 0,0 0,1 -1,0 -1,2 -1,3 -1,4 2,9 6,12 0,-1 0,-1 0,-1 1,-1 2,-4 3,-5 0,0 0,0 0,0l-3 -2z"/>
          <path class="fil3" d="M117 63c1,8 12,-13 6,-17 -8,-5 -8,2 -6,17z"/>
          <path class="fil2" d="M85 53c-1,12 -2,20 4,27 9,11 26,8 30,-5 5,-11 5,-30 -7,-36 -12,-7 -27,1 -27,14z"/>
          <path class="fil3" d="M110 45c0,0 8,8 14,5 6,-4 7,-12 0,-20 -3,-4 -8,-7 -18,-7 0,1 2,2 2,2 0,0 -12,-2 -21,1 0,0 1,2 3,3 -9,-1 -18,3 -12,11 -7,1 -9,11 -5,17 4,7 5,12 11,15 0,-9 2,-11 2,-11 4,-2 8,-10 7,-15 9,4 18,5 17,-1z"/>
          <path class="fil3" d="M80 40c-2,-2 -4,-4 -6,-8 -1,4 4,9 4,9l2 -1z"/>
          <path class="fil2" d="M78 60c0,3 2,6 4,7 2,3 6,1 6,-3 1,-3 0,-8 -4,-9 -3,-2 -6,1 -6,5z"/>
          <path class="fil3" d="M106 59c0,1 0,2 1,2 0,1 1,0 1,-1 0,-1 0,-2 -1,-2 0,-1 -1,0 -1,1z"/>
          <path class="fil3" d="M118 62c-1,1 0,2 0,2 1,0 2,0 2,-1 0,-1 0,-2 -1,-3 0,0 -1,1 -1,2z"/>
          <path class="fil9" d="M114 62c0,0 0,6 2,9 -2,1 -5,-1 -5,-1l3 -8z"/>
          <path class="fil3" d="M109 76c-4,-1 -6,-4 -6,-4 0,0 0,0 0,0 0,0 1,0 1,0 0,0 2,3 6,4 1,0 1,0 1,0 0,0 0,0 -1,0 0,0 0,0 -1,0z"/>
          <path class="fil3" d="M104 55c0,0 0,0 0,0 0,-1 0,-1 0,-1 3,-2 5,-1 6,-1 0,0 0,0 0,0 0,1 0,1 -1,1 0,0 -2,-1 -4,1 0,0 -1,0 -1,0z"/>
          <path class="fil3" d="M119 55c0,0 0,0 0,0 0,0 1,-1 1,-1 3,1 4,4 4,4 0,1 0,1 0,1 -1,0 -1,0 -1,0 0,0 -1,-3 -3,-3 -1,0 -1,-1 -1,-1z"/>
          <g>
           <path class="fil2" d="M64 108c-3,8 -5,16 -8,23 -1,4 -2,8 -3,12 -1,4 -2,8 -2,11 0,1 0,1 0,2l0 0c0,0 0,1 0,1 -1,0 -1,0 -1,0 1,1 1,2 2,3 2,2 5,5 8,7 7,4 14,8 21,12l-3 9c-4,-1 -8,-3 -12,-4 -5,-1 -9,-3 -13,-5 -4,-2 -8,-5 -12,-8 -2,-2 -4,-5 -5,-8 -1,-2 -2,-4 -2,-6 0,0 0,-1 0,-1l0 -1c0,-1 0,-1 0,-2 0,-5 1,-9 2,-14 1,-4 2,-8 3,-13 2,-8 5,-16 8,-24l17 6z"/>
           <g>
            <path class="fil7" d="M60 89c14,0 16,10 9,27 -4,9 -10,17 -10,17l-23 -12c3,-13 9,-32 24,-32z"/>
           </g>
           <path class="fil2" d="M98 178l-5 -3c-1,0 -2,-1 -3,-1l-6 1c-4,1 -7,4 -9,6l-3 4c0,6 16,4 16,4l14 0 0 -5c-1,-3 -2,-5 -4,-6z"/>
          </g>
         </g>
        </g>
       </g>
      </g>
     </g>
     <g>
      <g>
       <polygon class="fil10" points="395,204 18,204 18,186 395,186 "/>
       <polygon class="fil1" points="140,204 18,204 18,186 140,186 "/>
       <polygon class="fil0" points="28,399 22,399 22,204 28,204 "/>
       <polygon class="fil11" points="28,399 22,399 22,204 28,204 "/>
       <polygon class="fil0" points="136,399 130,399 130,204 136,204 "/>
       <polygon class="fil11" points="136,399 130,399 130,204 136,204 "/>
       <polygon class="fil0" points="283,399 277,399 277,204 283,204 "/>
       <polygon class="fil11" points="283,399 277,399 277,204 283,204 "/>
       <polygon class="fil0" points="391,399 385,399 385,204 391,204 "/>
       <polygon class="fil11" points="391,399 385,399 385,204 391,204 "/>
      </g>
      <g>
       <path class="fil3" d="M354 108l-103 0c-3,0 -7,3 -7,6l-11 66c-1,3 2,6 5,6l103 0c4,0 7,-3 8,-6l11 -66c0,-3 -2,-6 -6,-6z"/>
       <path class="fil3" d="M289 182l-97 0c-1,0 -2,0 -2,1l0 2c0,1 1,1 2,1l97 0c0,0 1,0 1,-1l0 -2c0,-1 -1,-1 -1,-1z"/>
       <path class="fil12" d="M354 108l-101 0c-3,0 -6,3 -7,6l-11 66c0,3 2,6 6,6l100 0c4,0 7,-3 8,-6l11 -66c0,-3 -2,-6 -6,-6z"/>
      </g>
      <g>
       <path class="fil0" d="M87 182c0,0 33,5 49,-2 8,4 35,6 44,2 -3,3 -10,4 -10,4 0,0 -63,0 -70,0 -6,0 -12,-3 -13,-4z"/>
       <path class="fil11" d="M87 182c0,0 33,5 49,-2 8,4 35,6 44,2 -3,3 -10,4 -10,4 0,0 -63,0 -70,0 -6,0 -12,-3 -13,-4z"/>
      </g>
     </g>
    </g>
   </g>
  </g>
  <polygon class="fil13" points="0,0 412,0 412,414 0,414 "/>
 </g>
</svg>
