<?xml version="1.0" encoding="UTF-8"?>
<!DOCTYPE svg PUBLIC "-//W3C//DTD SVG 1.1//EN" "http://www.w3.org/Graphics/SVG/1.1/DTD/svg11.dtd">
<!-- Creator: CorelDRAW X7 -->
<svg xmlns="http://www.w3.org/2000/svg" xml:space="preserve" width="378px" height="376px" version="1.1" style="shape-rendering:geometricPrecision; text-rendering:geometricPrecision; image-rendering:optimizeQuality; fill-rule:evenodd; clip-rule:evenodd"
viewBox="0 0 21 21"
 xmlns:xlink="http://www.w3.org/1999/xlink">
 <defs>
  <style type="text/css">
   <![CDATA[
    .fil7 {fill:blue;fill-rule:nonzero}
    .fil5 {fill:#002B7A;fill-rule:nonzero}
    .fil0 {fill:#067CFF;fill-rule:nonzero}
    .fil3 {fill:#202D34;fill-rule:nonzero}
    .fil10 {fill:#CC6633;fill-rule:nonzero}
    .fil9 {fill:#FF847F;fill-rule:nonzero}
    .fil2 {fill:#FFC5BD;fill-rule:nonzero}
    .fil8 {fill:white;fill-rule:nonzero}
    .fil4 {fill:black;fill-rule:nonzero;fill-opacity:0.200000}
    .fil6 {fill:#067CFF;fill-rule:nonzero;fill-opacity:0.200000}
    .fil12 {fill:white;fill-rule:nonzero;fill-opacity:0.200000}
    .fil1 {fill:white;fill-rule:nonzero;fill-opacity:0.301961}
    .fil11 {fill:white;fill-rule:nonzero;fill-opacity:0.701961}
   ]]>
  </style>
 </defs>
 <g id="Layer_x0020_1">
  <metadata id="CorelCorpID_0Corel-Layer"/>
  <g id="_1504524178256">
   <g>
    <g>
     <path class="fil0" d="M8 13l-7 0c0,0 0,0 0,-1l0 0c0,0 0,0 0,0l7 0c0,0 0,0 0,0l0 0c0,1 0,1 0,1z"/>
     <g>
      <polygon class="fil0" points="8,21 8,21 8,13 8,13 "/>
      <polygon class="fil1" points="8,21 8,21 8,13 8,13 "/>
     </g>
     <g>
      <polygon class="fil0" points="6,21 6,21 6,13 6,13 "/>
      <polygon class="fil1" points="6,21 6,21 6,13 6,13 "/>
     </g>
     <g>
      <polygon class="fil0" points="3,21 3,21 3,13 3,13 "/>
      <polygon class="fil1" points="3,21 3,21 3,13 3,13 "/>
     </g>
     <g>
      <polygon class="fil0" points="1,21 1,21 1,13 2,13 "/>
      <polygon class="fil1" points="1,21 1,21 1,13 2,13 "/>
     </g>
    </g>
    <g>
     <g>
      <g>
       <g>
        <g>
         <polygon class="fil2" points="10,19 11,18 10,17 9,17 "/>
         <path class="fil3" d="M11 18l-1 1c0,0 0,0 0,0l0 0c0,0 0,0 0,0 1,0 1,0 1,0 0,0 1,0 1,0 0,-1 0,-1 0,-1 0,0 -1,0 -1,0 0,0 0,0 0,0z"/>
         <g>
          <polygon class="fil4" points="9,17 10,17 10,18 10,18 "/>
         </g>
         <path class="fil5" d="M5 10c0,0 4,0 4,1 0,3 2,6 2,6l-2 1c0,0 -2,-4 -2,-6 -2,0 -4,0 -5,-1 0,0 0,-1 0,-1l3 0z"/>
         <polygon class="fil6" points="9,18 11,17 11,17 9,17 "/>
        </g>
        <g>
         <polygon class="fil2" points="7,19 8,19 7,17 6,17 "/>
         <path class="fil3" d="M8 19l-1 0c0,0 0,0 0,0l0 0c0,1 0,1 0,1 0,0 0,0 1,0 0,0 0,0 1,0 0,0 0,-1 0,-1 -1,0 -1,0 -1,0 0,0 0,0 0,0z"/>
         <g>
          <polygon class="fil4" points="6,17 7,17 7,18 7,18 "/>
         </g>
         <path class="fil5" d="M3 10c0,0 4,0 4,2 0,2 1,6 1,6l-2 0c0,0 -1,-4 -1,-6 -1,0 -4,0 -4,-1 0,0 0,-1 0,-1l2 0z"/>
         <polygon class="fil6" points="6,18 8,18 8,17 6,17 "/>
        </g>
        <g>
         <path class="fil2" d="M5 5c1,0 1,1 1,1 0,1 0,1 0,2l0 0 0 0 0 0 0 0 0 0c0,0 0,0 0,0 0,0 0,0 0,0 0,0 0,0 0,0 0,0 0,0 0,0 0,0 0,0 0,0 0,0 0,0 0,0 0,0 0,0 0,0 0,0 0,0 0,0 0,0 0,0 1,0 0,1 0,1 1,1l0 0c0,0 -1,0 -1,0 0,0 0,0 -1,0 0,0 0,0 0,0 0,0 0,0 0,0 0,0 0,0 0,0 0,0 0,0 -1,0 0,0 0,0 0,0l0 0c0,0 0,0 0,0 0,0 0,0 0,0l0 0 0 0 0 -1c0,0 0,0 0,0 0,0 0,-1 0,-1 0,-1 -1,-1 -1,-2l1 0z"/>
         <g>
          <g>
           <path class="fil7" d="M4 4c1,0 1,0 2,1 0,1 0,1 0,1l-2 1c0,-1 0,-2 0,-3z"/>
          </g>
          <path class="fil7" d="M4 4c1,0 1,0 2,1 0,1 0,1 0,1l-2 1c0,-1 0,-2 0,-3z"/>
         </g>
         <path class="fil2" d="M9 9l0 0c-1,0 -1,0 -1,0l0 0c0,0 0,0 0,0l-1 0c0,0 1,0 1,0l1 0 0 0c0,0 0,0 0,0z"/>
         <path class="fil3" d="M9 8c0,0 0,0 0,0 0,0 0,0 0,1 0,0 -1,0 -1,0 0,0 0,0 0,0 0,0 0,0 0,0 0,0 0,0 1,-1 0,0 0,0 0,0 0,0 0,0 0,0 0,0 0,0 0,0 0,0 0,0 0,0z"/>
        </g>
        <path class="fil7" d="M4 4l0 0 -2 0c0,0 0,0 0,0 -1,1 -1,2 -1,3 0,0 0,1 0,3l4 0c0,-3 0,-4 0,-5 1,0 0,-1 0,-1l-1 0z"/>
        <path class="fil8" d="M3 4c0,0 1,1 1,1 0,0 1,0 1,-1l-2 0z"/>
        <path class="fil2" d="M5 4c0,0 0,0 0,0 -1,0 -1,0 0,0 0,0 0,0 0,0l-1 -1 0 -1c0,1 0,1 -1,2 0,0 0,0 0,0 0,0 1,1 1,1 0,0 1,0 1,-1z"/>
        <path class="fil4" d="M5 3l-1 0c0,0 0,0 0,0 0,0 0,0 0,0 0,0 0,1 1,1 0,0 0,0 0,0 0,0 0,0 0,0 0,0 0,0 0,0l0 -1z"/>
        <path class="fil3" d="M6 2c0,1 0,0 0,-1 0,0 -1,0 0,1z"/>
        <path class="fil2" d="M4 2c0,0 0,1 0,1 1,1 1,1 2,0 0,-1 0,-2 -1,-2 0,-1 -1,0 -1,1z"/>
        <path class="fil3" d="M5 1c0,0 1,1 1,0 0,0 0,0 0,-1 0,0 0,0 -1,0 0,0 0,0 0,0 0,0 -1,0 -1,0 0,0 0,0 0,0 0,0 -1,0 -1,1 0,0 0,1 0,1 0,0 0,1 1,1 0,-1 0,-1 0,-1 0,0 0,0 0,-1 1,0 1,1 1,0z"/>
        <path class="fil3" d="M4 1c-1,0 -1,0 -1,-1 0,1 0,1 0,1l1 0z"/>
        <path class="fil2" d="M3 2c0,0 1,0 1,1 0,0 0,0 0,-1 0,0 0,0 0,0 0,0 -1,0 -1,0z"/>
        <path class="fil3" d="M5 2c0,0 0,0 0,0 0,0 0,0 0,0 0,0 0,0 0,0 0,0 0,0 0,0z"/>
        <path class="fil3" d="M6 2c0,0 0,0 0,0 0,0 0,0 0,0 0,0 0,0 0,0 0,0 0,0 0,0z"/>
        <path class="fil9" d="M5 2c0,0 0,1 1,1 -1,0 -1,0 -1,0l0 -1z"/>
        <path class="fil3" d="M5 3c0,0 0,0 0,0 0,0 0,0 0,0 0,0 0,0 0,0 0,0 0,0 0,0 0,0 0,0 0,0 0,0 0,0 0,0 0,0 0,0 0,0z"/>
        <path class="fil3" d="M5 2c0,0 0,0 0,0 0,0 0,0 0,0 0,0 0,0 0,0 0,0 0,0 0,0 0,0 0,0 0,0 0,0 0,0 0,0 0,0 0,0 0,0z"/>
        <path class="fil3" d="M6 2c0,0 0,0 0,0 0,0 0,0 0,0 0,0 0,0 0,0 0,0 0,0 0,0 0,0 0,0 0,0 0,0 0,0 0,0 0,0 0,0 0,0z"/>
        <g>
         <path class="fil2" d="M3 5c-1,0 -1,1 -1,1 0,0 0,1 0,1 0,0 0,0 0,0 0,0 0,0 0,1l0 0c0,0 0,0 0,0 0,0 0,0 0,0 0,0 0,0 0,0 0,0 0,0 0,0 1,0 1,1 2,1l-1 0c0,0 0,0 0,0 -1,0 -1,0 -1,0 0,0 0,0 -1,-1 0,0 0,0 0,0 0,0 0,0 0,0 0,0 0,0 0,0l0 -1c0,0 0,0 0,0 0,0 0,0 0,0 0,-1 0,-1 0,-1 0,-1 0,-1 1,-2l1 1z"/>
         <g>
          <path class="fil7" d="M2 4c1,0 1,0 1,1 0,1 -1,1 -1,1l-1 0c0,-1 1,-2 1,-2z"/>
         </g>
         <path class="fil2" d="M5 9l-1 0c0,0 0,0 0,0l0 0c0,0 -1,0 -1,0l0 0c0,1 1,0 1,0l1 0 0 0c0,0 0,0 0,0z"/>
        </g>
       </g>
      </g>
     </g>
    </g>
   </g>
   <g>
    <g>
     <polygon class="fil10" points="21,10 0,10 0,9 21,9 "/>
     <polygon class="fil1" points="7,10 0,10 0,9 7,9 "/>
     <polygon class="fil0" points="1,21 0,21 0,10 1,10 "/>
     <polygon class="fil11" points="1,21 0,21 0,10 1,10 "/>
     <polygon class="fil0" points="7,21 6,21 6,10 7,10 "/>
     <polygon class="fil11" points="7,21 6,21 6,10 7,10 "/>
     <polygon class="fil0" points="15,21 15,21 15,10 15,10 "/>
     <polygon class="fil11" points="15,21 15,21 15,10 15,10 "/>
     <polygon class="fil0" points="21,21 21,21 21,10 21,10 "/>
     <polygon class="fil11" points="21,21 21,21 21,10 21,10 "/>
    </g>
    <g>
     <path class="fil3" d="M19 5l-6 0c0,0 0,0 0,0l-1 4c0,0 0,0 0,0l6 0c1,0 1,0 1,0l0 -4c0,0 0,0 0,0z"/>
     <path class="fil3" d="M15 9l-5 0c0,0 0,0 0,0l0 0c0,0 0,0 0,0l5 0c0,0 0,0 0,0l0 0c0,0 0,0 0,0z"/>
     <path class="fil12" d="M19 5l-6 0c0,0 0,0 0,0l-1 4c0,0 0,0 1,0l5 0c1,0 1,0 1,0l0 -4c0,0 0,0 0,0z"/>
    </g>
    <g>
     <path class="fil0" d="M4 9c0,0 2,0 3,0 0,0 2,0 2,0 0,0 0,0 0,0 0,0 -4,0 -4,0 -1,0 -1,0 -1,0z"/>
     <path class="fil11" d="M4 9c0,0 2,0 3,0 0,0 2,0 2,0 0,0 0,0 0,0 0,0 -4,0 -4,0 -1,0 -1,0 -1,0z"/>
    </g>
   </g>
  </g>
 </g>
</svg>
